<svg width="29" height="26" viewBox="0 0 29 26" fill="none" xmlns="http://www.w3.org/2000/svg">
<path d="M4.55249 23.8201V13.1515C4.55249 12.699 4.75959 12.2713 5.11464 11.9907L13.6687 5.23016C14.1657 4.83737 14.8576 4.80455 15.3895 5.14852L23.7711 10.5684C24.1926 10.841 24.4472 11.3088 24.4472 11.8108V23.8201C24.4472 24.6373 23.7848 25.2997 22.9677 25.2997H6.03206C5.21491 25.2997 4.55249 24.6373 4.55249 23.8201Z" fill="#D9D9D9"/>
<path d="M3.72549 14.1314L14.0545 6.33906C14.3182 6.14011 14.6818 6.14011 14.9455 6.33906L25.2745 14.1314C25.602 14.3784 26.0679 14.3118 26.3131 13.983L27.5711 12.2959C27.81 11.9754 27.7511 11.523 27.438 11.2743L14.9601 1.36534C14.6907 1.15141 14.3093 1.15141 14.0399 1.36534L1.56195 11.2743C1.24886 11.523 1.18996 11.9754 1.42894 12.2959L2.68688 13.983C2.93207 14.3118 3.39802 14.3784 3.72549 14.1314Z" fill="#A0A0A0" stroke="#A0A0A0" stroke-width="0.591826"/>
<rect x="10.45" y="13.626" width="3.35526" height="3.375" rx="0.315649" fill="#FDFDFD"/>
<rect x="10.4502" y="18.1992" width="3.35526" height="3.375" rx="0.315649" fill="#FDFDFD"/>
<rect x="14.9971" y="13.626" width="3.35526" height="3.375" rx="0.315649" fill="#FDFDFD"/>
<rect x="14.9971" y="18.1992" width="3.35526" height="3.375" rx="0.315649" fill="#FDFDFD"/>
</svg>