<svg width="25" height="25" viewBox="0 0 25 25" fill="none" xmlns="http://www.w3.org/2000/svg">
<path d="M11.1 13.441L8.95 11.291C8.76667 11.1077 8.53333 11.016 8.25 11.016C7.96667 11.016 7.73333 11.1077 7.55 11.291C7.36667 11.4743 7.275 11.7077 7.275 11.991C7.275 12.2743 7.36667 12.5077 7.55 12.691L10.4 15.541C10.6 15.741 10.8333 15.841 11.1 15.841C11.3667 15.841 11.6 15.741 11.8 15.541L17.45 9.89102C17.6333 9.70768 17.725 9.47435 17.725 9.19102C17.725 8.90768 17.6333 8.67435 17.45 8.49102C17.2667 8.30768 17.0333 8.21602 16.75 8.21602C16.4667 8.21602 16.2333 8.30768 16.05 8.49102L11.1 13.441ZM5.5 21.041C4.95 21.041 4.47933 20.8453 4.088 20.454C3.69667 20.0627 3.50067 19.5917 3.5 19.041V5.04102C3.5 4.49102 3.696 4.02035 4.088 3.62902C4.48 3.23768 4.95067 3.04168 5.5 3.04102H19.5C20.05 3.04102 20.521 3.23702 20.913 3.62902C21.305 4.02102 21.5007 4.49168 21.5 5.04102V19.041C21.5 19.591 21.3043 20.062 20.913 20.454C20.5217 20.846 20.0507 21.0417 19.5 21.041H5.5ZM5.5 19.041H19.5V5.04102H5.5V19.041Z" fill="#C5C5C5"/>
</svg>
