<svg width="58" height="22" viewBox="0 0 58 22" fill="none" xmlns="http://www.w3.org/2000/svg">
<rect width="58" height="22" rx="11" fill="#888888"/>
<path d="M11.375 5.91797C12.9336 5.92969 14.0703 6.86719 14.0703 8.22656C14.0703 9.58594 12.9336 10.5234 11.375 10.5234C9.79297 10.5234 8.66797 9.58594 8.66797 8.22656C8.66797 6.86719 9.79297 5.92969 11.375 5.91797ZM11.375 6.69141C10.332 6.69141 9.55859 7.32422 9.57031 8.22656C9.55859 9.14062 10.332 9.77344 11.375 9.77344C12.4062 9.77344 13.1797 9.14062 13.1797 8.22656C13.1797 7.32422 12.4062 6.69141 11.375 6.69141ZM17.0234 5.53125V10.8867H16.1094V5.53125H17.0234ZM17.0234 11.3906V13.8984H11.1758V15.0703H17.3984V15.8086H10.2734V13.207H16.1094V12.1289H10.25V11.3906H17.0234ZM22.4961 8.33203C22.4844 10.2305 23.7852 12.1523 25.3203 12.8438L24.7578 13.5703C23.5742 12.9902 22.5488 11.7656 22.0508 10.2773C21.5645 11.8535 20.5391 13.166 19.3203 13.7812L18.7344 13.0078C20.2812 12.293 21.5703 10.3125 21.582 8.33203V6.43359H22.4961V8.33203ZM27.3828 5.53125V15.9727H26.457V5.53125H27.3828ZM37.8008 5.53125V11.7422H36.875V9.01172H34.7773V8.25H36.875V5.53125H37.8008ZM34.3438 12.0703C36.5117 12.0703 37.8359 12.7734 37.8359 14.0039C37.8359 15.2344 36.5117 15.9375 34.3438 15.9492C32.1758 15.9375 30.8516 15.2344 30.8516 14.0039C30.8516 12.7734 32.1758 12.0703 34.3438 12.0703ZM34.3438 12.7852C32.75 12.7852 31.7539 13.2422 31.7656 14.0039C31.7539 14.7539 32.75 15.2109 34.3438 15.2109C35.9375 15.2109 36.9219 14.7539 36.9219 14.0039C36.9219 13.2422 35.9375 12.7852 34.3438 12.7852ZM32.7852 7.44141C32.7852 8.80078 33.8281 10.0898 35.3516 10.6172L34.8711 11.3555C33.6992 10.9336 32.791 10.0605 32.3516 8.97656C31.8945 10.2012 30.9277 11.1797 29.6914 11.6484L29.2109 10.9102C30.7578 10.3477 31.8594 8.94141 31.8594 7.45312V7.06641H29.5039V6.29297H35.1172V7.06641H32.7852V7.44141ZM43.2617 8.73047C43.2617 10.5 44.5508 12.293 46.0859 12.9609L45.5703 13.6875C44.3516 13.1309 43.2969 11.9297 42.8164 10.4883C42.3242 12.0176 41.2754 13.3477 40.0859 13.9453L39.5352 13.2188C41.0234 12.5039 42.3242 10.5352 42.3359 8.73047V7.37109H39.875V6.60938H45.7461V7.37109H43.2617V8.73047ZM48.125 5.53125V15.9492H47.1992V5.53125H48.125Z" fill="white"/>
</svg>
