<svg width="58" height="22" viewBox="0 0 58 22" fill="none" xmlns="http://www.w3.org/2000/svg">
<rect width="58" height="22" rx="11" fill="#F56060"/>
<path d="M11.293 6.16406C12.1719 6.1582 12.9219 6.48633 13.4023 7.04297H16.1328V5.53125H17.0586V11.707H16.1328V10.2188H13.4141C12.9219 10.7754 12.1719 11.1035 11.293 11.0977C9.73438 11.1094 8.58594 10.0898 8.58594 8.63672C8.58594 7.17188 9.73438 6.15234 11.293 6.16406ZM11.293 6.96094C10.2266 6.94922 9.46484 7.65234 9.46484 8.63672C9.46484 9.60938 10.2266 10.3125 11.293 10.3125C12.3242 10.3125 13.0977 9.60938 13.0977 8.63672C13.0977 7.65234 12.3242 6.94922 11.293 6.96094ZM13.6016 11.9531C15.7578 11.9531 17.0938 12.6797 17.0938 13.9336C17.0938 15.1992 15.7578 15.9258 13.6016 15.9258C11.4336 15.9258 10.1094 15.1992 10.1094 13.9336C10.1094 12.6797 11.4336 11.9531 13.6016 11.9531ZM13.6016 12.668C12.0078 12.668 11.0117 13.1484 11.0117 13.9336C11.0117 14.7188 12.0078 15.1875 13.6016 15.1875C15.207 15.1875 16.1914 14.7188 16.1914 13.9336C16.1914 13.1484 15.207 12.668 13.6016 12.668ZM13.8477 7.79297C13.9355 8.05078 13.9883 8.33203 13.9883 8.63672C13.9883 8.92969 13.9355 9.20508 13.8477 9.45703H16.1328V7.79297H13.8477ZM27.0312 6.21094V7.125C27.0312 8.11523 27.0312 9.1875 26.7383 10.6875H28.2852V11.4492H23.9844V15.9727H23.0586V11.4492H18.793V10.6875H25.8008C26.1172 9.1875 26.1172 8.0918 26.1172 7.125V6.97266H19.9883V6.21094H27.0312ZM37.8008 5.53125V11.7422H36.875V9.01172H34.7773V8.25H36.875V5.53125H37.8008ZM34.3438 12.0703C36.5117 12.0703 37.8359 12.7734 37.8359 14.0039C37.8359 15.2344 36.5117 15.9375 34.3438 15.9492C32.1758 15.9375 30.8516 15.2344 30.8516 14.0039C30.8516 12.7734 32.1758 12.0703 34.3438 12.0703ZM34.3438 12.7852C32.75 12.7852 31.7539 13.2422 31.7656 14.0039C31.7539 14.7539 32.75 15.2109 34.3438 15.2109C35.9375 15.2109 36.9219 14.7539 36.9219 14.0039C36.9219 13.2422 35.9375 12.7852 34.3438 12.7852ZM32.7852 7.44141C32.7852 8.80078 33.8281 10.0898 35.3516 10.6172L34.8711 11.3555C33.6992 10.9336 32.791 10.0605 32.3516 8.97656C31.8945 10.2012 30.9277 11.1797 29.6914 11.6484L29.2109 10.9102C30.7578 10.3477 31.8594 8.94141 31.8594 7.45312V7.06641H29.5039V6.29297H35.1172V7.06641H32.7852V7.44141ZM43.2617 8.73047C43.2617 10.5 44.5508 12.293 46.0859 12.9609L45.5703 13.6875C44.3516 13.1309 43.2969 11.9297 42.8164 10.4883C42.3242 12.0176 41.2754 13.3477 40.0859 13.9453L39.5352 13.2188C41.0234 12.5039 42.3242 10.5352 42.3359 8.73047V7.37109H39.875V6.60938H45.7461V7.37109H43.2617V8.73047ZM48.125 5.53125V15.9492H47.1992V5.53125H48.125Z" fill="white"/>
</svg>
