<svg width="26" height="26" viewBox="0 0 26 26" fill="none" xmlns="http://www.w3.org/2000/svg">
<path d="M17.2617 6.70823C13.9013 -1.10772 11.9633 -0.692079 8.74131 6.69524C8.59843 7.02284 8.28787 7.25623 7.93347 7.30247C-0.178934 8.36095 -1.23136 10.1826 5.08679 15.8495C5.35149 16.0869 5.47653 16.4562 5.4117 16.8058C3.65379 26.2849 5.98 26.5688 12.7715 22.551C13.0928 22.3608 13.4996 22.3629 13.8196 22.5553C20.8676 26.7913 22.0961 25.7581 20.5716 16.7994C20.5126 16.4525 20.6399 16.0914 20.9041 15.8591C26.6673 10.7909 26.8977 8.75631 18.0434 7.3182C17.6996 7.26235 17.3992 7.02824 17.2617 6.70823Z" fill="#33BB9A" stroke="#33BB9A" stroke-width="2"/>
</svg>
