<svg width="56" height="53" viewBox="0 0 56 53" fill="none" xmlns="http://www.w3.org/2000/svg">
<path d="M46.3389 30.868C60.0181 17.0684 57.4947 13.4716 39.1007 13.1193C38.6641 13.111 38.2469 12.862 38.0323 12.4816C28.8592 -3.77668 24.2467 -4.45617 17.8093 13.8367C17.6651 14.2466 17.2966 14.5664 16.8708 14.6529C-4.68968 19.0351 -3.16212 24.0619 11.2235 34.8754C11.5882 35.1496 11.778 35.6221 11.7066 36.0727C8.7663 54.6506 11.8547 56.3057 29.4133 45.3139C29.7777 45.0857 30.2554 45.0622 30.6397 45.2551C46.2853 53.1076 50.6989 51.9772 46.0078 32.0433C45.9103 31.629 46.0393 31.1703 46.3389 30.868Z" fill="#FFDD2C"/>
</svg>
