<svg width="31" height="30" viewBox="0 0 31 30" fill="none" xmlns="http://www.w3.org/2000/svg">
<path d="M20.9137 7.21785C16.7409 -2.54081 14.3584 -2.016 10.357 7.20513C10.2174 7.52672 9.90962 7.75809 9.56191 7.80279C-0.556622 9.10372 -1.86224 11.3396 6.03639 18.3936C6.29652 18.6259 6.42055 18.9921 6.35631 19.3349C4.14168 31.1518 7.02334 31.4662 15.4814 26.4418C15.7962 26.2547 16.1996 26.257 16.5132 26.4462C25.3024 31.7499 26.8089 30.4925 24.8949 19.3285C24.8366 18.9883 24.9627 18.6305 25.2222 18.4031C32.4185 12.0965 32.7301 9.5914 21.6832 7.81831C21.3458 7.76416 21.048 7.53201 20.9137 7.21785Z" fill="#A442E1"/>
</svg>
