<svg width="31" height="31" viewBox="0 0 31 31" fill="none" xmlns="http://www.w3.org/2000/svg">
<path d="M20.8698 7.72903C16.6964 -2.0309 14.3136 -1.50601 10.3117 7.7163C10.1722 8.0379 9.86435 8.26927 9.51664 8.31397C-0.603203 9.61506 -1.90898 11.8512 5.99067 18.9061C6.25081 19.1385 6.37484 19.5046 6.31059 19.8474C4.09566 31.6658 6.97769 31.9803 15.4368 26.9552C15.7517 26.7681 16.1551 26.7704 16.4686 26.9596C25.259 32.264 26.7657 31.0065 24.8514 19.841C24.7931 19.5008 24.9192 19.143 25.1787 18.9156C32.376 12.6082 32.6876 10.1028 21.6392 8.32948C21.3019 8.27534 21.0041 8.04318 20.8698 7.72903Z" fill="url(#paint0_linear_642_2406)"/>
<defs>
<linearGradient id="paint0_linear_642_2406" x1="12.2673" y1="0.603027" x2="20.3368" y2="30.033" gradientUnits="userSpaceOnUse">
<stop stop-color="#FF7373"/>
<stop offset="0.185" stop-color="#FFAE63"/>
<stop offset="0.39" stop-color="#FFF069"/>
<stop offset="0.6" stop-color="#A5EFAC"/>
<stop offset="0.785" stop-color="#8CCCFB"/>
<stop offset="1" stop-color="#6672AF"/>
</linearGradient>
</defs>
</svg>
