<svg width="30" height="30" viewBox="0 0 30 30" fill="none" xmlns="http://www.w3.org/2000/svg">
<path d="M20.4523 7.21785C16.2794 -2.54081 13.8969 -2.016 9.89557 7.20513C9.75601 7.52672 9.4482 7.75809 9.10049 7.80279C-1.01805 9.10372 -2.32366 11.3396 5.57496 18.3936C5.8351 18.6259 5.95913 18.9921 5.89488 19.3349C3.68025 31.1518 6.56191 31.4662 15.0199 26.4418C15.3348 26.2547 15.7382 26.257 16.0518 26.4462C24.841 31.7499 26.3475 30.4925 24.4335 19.3285C24.3751 18.9883 24.5012 18.6305 24.7608 18.4031C31.9571 12.0965 32.2687 9.5914 21.2217 7.81831C20.8844 7.76416 20.5866 7.53201 20.4523 7.21785Z" fill="#A5EFAC"/>
</svg>
