<svg xmlns="http://www.w3.org/2000/svg" width="37" height="36" viewBox="0 0 37 36" fill="none">
    <path d="M9.95129 19.7937C6.43482 16.3841 5.58894 17.2176 5.88313 22.3882C5.90462 22.7659 5.74505 23.1497 5.46831 23.3918C1.982 26.4408 1.9797 27.8403 6.33782 29.1951C6.62028 29.2829 6.83807 29.5264 6.92139 29.8468C8.4671 35.7907 9.66429 35.3532 11.848 31.1033C12.0445 30.7207 12.4153 30.4845 12.7855 30.5057C17.0506 30.7497 17.3409 29.7058 14.4058 25.029C14.2398 24.7645 14.2022 24.4105 14.3038 24.0811C15.7365 19.4373 15.3128 18.1663 10.8378 19.9588C10.5238 20.0846 10.1876 20.0228 9.95129 19.7937Z" fill="#FF7373"/>
    <path d="M29.8688 5.69991C26.9478 -2.10182 25.2606 -1.68874 22.4601 5.68346C22.3319 6.02099 22.0269 6.26694 21.6699 6.32111C14.6683 7.3837 13.786 9.2179 19.2917 14.8857C19.5119 15.1124 19.615 15.4413 19.5643 15.7533C18.0222 25.2484 20.0096 25.5982 25.8547 21.6449C26.1955 21.4144 26.6449 21.4166 26.984 21.6496C33.0423 25.8131 34.0822 24.7232 32.7473 15.7483C32.7012 15.4384 32.8062 15.1161 33.0267 14.8935C38.0495 9.82223 38.2757 7.77916 30.6287 6.33862C30.2844 6.27376 29.9917 6.02804 29.8688 5.69991Z" fill="#7761FF"/>
    <path d="M9.42968 0C10.182 3.81353 10.8064 5.39897 12.5586 6.59422H6.30078C8.22345 5.22234 8.81978 3.60469 9.42968 0Z" fill="#FFF069"/>
    <path d="M9.42968 13.1885C10.182 9.37495 10.8064 7.78951 12.5586 6.59425H6.30078C8.22345 7.96613 8.81978 9.58379 9.42968 13.1885Z" fill="#FFF069"/>
</svg>