<svg width="31" height="30" viewBox="0 0 31 30" fill="none" xmlns="http://www.w3.org/2000/svg">
<path d="M20.6583 7.21785C16.4855 -2.54081 14.103 -2.016 10.1016 7.20513C9.96207 7.52672 9.65425 7.75809 9.30654 7.80279C-0.811993 9.10372 -2.11761 11.3396 5.78102 18.3936C6.04115 18.6259 6.16518 18.9921 6.10094 19.3349C3.88631 31.1518 6.76797 31.4662 15.226 26.4418C15.5409 26.2547 15.9442 26.257 16.2578 26.4462C25.047 31.7499 26.5536 30.4925 24.6395 19.3285C24.5812 18.9883 24.7073 18.6305 24.9668 18.4031C32.1632 12.0965 32.4747 9.5914 21.4278 7.81831C21.0904 7.76416 20.7927 7.53201 20.6583 7.21785Z" fill="#FFAE63"/>
</svg>
