<svg width="30" height="30" viewBox="0 0 30 30" fill="none" xmlns="http://www.w3.org/2000/svg">
<path d="M20.3492 7.21785C16.1764 -2.54081 13.7939 -2.016 9.79254 7.20513C9.65299 7.52672 9.34517 7.75809 8.99746 7.80279C-1.12107 9.10372 -2.42669 11.3396 5.47194 18.3936C5.73207 18.6259 5.8561 18.9921 5.79185 19.3349C3.57722 31.1518 6.45888 31.4662 14.9169 26.4418C15.2318 26.2547 15.6352 26.257 15.9487 26.4462C24.7379 31.7499 26.2445 30.4925 24.3304 19.3285C24.2721 18.9883 24.3982 18.6305 24.6578 18.4031C31.8541 12.0965 32.1656 9.5914 21.1187 7.81831C20.7814 7.76416 20.4836 7.53201 20.3492 7.21785Z" fill="#8CCCFB"/>
</svg>
