<svg width="30" height="30" viewBox="0 0 30 30" fill="none" xmlns="http://www.w3.org/2000/svg">
<path d="M20.246 7.21785C16.0731 -2.54081 13.6906 -2.016 9.68927 7.20513C9.54972 7.52672 9.2419 7.75809 8.89419 7.80279C-1.22435 9.10372 -2.52996 11.3396 5.36866 18.3936C5.6288 18.6259 5.75283 18.9921 5.68858 19.3349C3.47395 31.1518 6.35561 31.4662 14.8136 26.4418C15.1285 26.2547 15.5319 26.257 15.8455 26.4462C24.6347 31.7499 26.1412 30.4925 24.2272 19.3285C24.1688 18.9883 24.2949 18.6305 24.5545 18.4031C31.7508 12.0965 32.0624 9.5914 21.0154 7.81831C20.6781 7.76416 20.3803 7.53201 20.246 7.21785Z" fill="#515EA2"/>
</svg>
