<svg width="30" height="30" viewBox="0 0 30 30" fill="none" xmlns="http://www.w3.org/2000/svg">
<path d="M20.5553 7.21785C16.3825 -2.54081 14 -2.016 9.99859 7.20513C9.85904 7.52672 9.55122 7.75809 9.20351 7.80279C-0.91502 9.10372 -2.22064 11.3396 5.67799 18.3936C5.93813 18.6259 6.06216 18.9921 5.99791 19.3349C3.78328 31.1518 6.66494 31.4662 15.123 26.4418C15.4378 26.2547 15.8412 26.257 16.1548 26.4462C24.944 31.7499 26.4505 30.4925 24.5365 19.3285C24.4782 18.9883 24.6043 18.6305 24.8638 18.4031C32.0601 12.0965 32.3717 9.5914 21.3248 7.81831C20.9874 7.76416 20.6896 7.53201 20.5553 7.21785Z" fill="#FFF069"/>
</svg>
