<svg width="31" height="30" viewBox="0 0 31 30" fill="none" xmlns="http://www.w3.org/2000/svg">
<path d="M20.7614 7.21785C16.5885 -2.54081 14.206 -2.016 10.2046 7.20513C10.0651 7.52672 9.75728 7.75809 9.40957 7.80279C-0.708966 9.10372 -2.01458 11.3396 5.88405 18.3936C6.14418 18.6259 6.26821 18.9921 6.20396 19.3349C3.98933 31.1518 6.87099 31.4662 15.329 26.4418C15.6439 26.2547 16.0473 26.257 16.3609 26.4462C25.15 31.7499 26.6566 30.4925 24.7425 19.3285C24.6842 18.9883 24.8103 18.6305 25.0699 18.4031C32.2662 12.0965 32.5777 9.5914 21.5308 7.81831C21.1935 7.76416 20.8957 7.53201 20.7614 7.21785Z" fill="#FF7373"/>
</svg>
